<mxfile host="Electron" modified="2023-05-25T07:21:15.358Z" agent="Mozilla/5.0 (X11; Linux x86_64) AppleWebKit/537.36 (KHTML, like Gecko) draw.io/21.2.8 Chrome/112.0.5615.165 Electron/24.2.0 Safari/537.36" etag="r_tfB-ZCaIOR65p6gyj_" version="21.2.8" type="device">
  <diagram name="Page-1" id="dkeRdCWpW_RHH1g8BhaF">
    <mxGraphModel dx="1183" dy="719" grid="1" gridSize="10" guides="1" tooltips="1" connect="1" arrows="1" fold="1" page="1" pageScale="1" pageWidth="827" pageHeight="1169" math="0" shadow="0">
      <root>
        <mxCell id="0" />
        <mxCell id="1" parent="0" />
        <mxCell id="m6rsbceTuGZSMV-VV-9u-2" value="Backend" style="swimlane;horizontal=0;whiteSpace=wrap;html=1;" parent="1" vertex="1">
          <mxGeometry x="40" y="40" width="480" height="370" as="geometry" />
        </mxCell>
        <mxCell id="m6rsbceTuGZSMV-VV-9u-8" style="edgeStyle=orthogonalEdgeStyle;rounded=0;orthogonalLoop=1;jettySize=auto;html=1;" parent="m6rsbceTuGZSMV-VV-9u-2" source="m6rsbceTuGZSMV-VV-9u-4" target="m6rsbceTuGZSMV-VV-9u-7" edge="1">
          <mxGeometry relative="1" as="geometry" />
        </mxCell>
        <mxCell id="m6rsbceTuGZSMV-VV-9u-4" value="Aggregator" style="whiteSpace=wrap;html=1;aspect=fixed;" parent="m6rsbceTuGZSMV-VV-9u-2" vertex="1">
          <mxGeometry x="300" y="40" width="80" height="80" as="geometry" />
        </mxCell>
        <mxCell id="m6rsbceTuGZSMV-VV-9u-7" value="Time Series DB" style="shape=cylinder3;whiteSpace=wrap;html=1;boundedLbl=1;backgroundOutline=1;size=15;" parent="m6rsbceTuGZSMV-VV-9u-2" vertex="1">
          <mxGeometry x="190" y="40" width="60" height="80" as="geometry" />
        </mxCell>
        <mxCell id="m6rsbceTuGZSMV-VV-9u-11" style="edgeStyle=orthogonalEdgeStyle;rounded=0;orthogonalLoop=1;jettySize=auto;html=1;exitX=0.5;exitY=0;exitDx=0;exitDy=0;entryX=0.5;entryY=1;entryDx=0;entryDy=0;entryPerimeter=0;" parent="m6rsbceTuGZSMV-VV-9u-2" source="m6rsbceTuGZSMV-VV-9u-33" target="m6rsbceTuGZSMV-VV-9u-7" edge="1">
          <mxGeometry relative="1" as="geometry">
            <mxPoint x="220" y="160" as="sourcePoint" />
          </mxGeometry>
        </mxCell>
        <mxCell id="m6rsbceTuGZSMV-VV-9u-13" style="edgeStyle=orthogonalEdgeStyle;rounded=0;orthogonalLoop=1;jettySize=auto;html=1;entryX=0;entryY=0.5;entryDx=0;entryDy=0;entryPerimeter=0;" parent="m6rsbceTuGZSMV-VV-9u-2" target="m6rsbceTuGZSMV-VV-9u-12" edge="1">
          <mxGeometry relative="1" as="geometry">
            <mxPoint x="260" y="200" as="sourcePoint" />
          </mxGeometry>
        </mxCell>
        <mxCell id="m6rsbceTuGZSMV-VV-9u-12" value="Auth&lt;br&gt;DB" style="shape=cylinder3;whiteSpace=wrap;html=1;boundedLbl=1;backgroundOutline=1;size=15;" parent="m6rsbceTuGZSMV-VV-9u-2" vertex="1">
          <mxGeometry x="310" y="160" width="60" height="80" as="geometry" />
        </mxCell>
        <mxCell id="m6rsbceTuGZSMV-VV-9u-19" value="- API Key&lt;br&gt;- Name&lt;br&gt;- Location" style="text;html=1;strokeColor=none;fillColor=none;align=center;verticalAlign=middle;whiteSpace=wrap;rounded=0;" parent="m6rsbceTuGZSMV-VV-9u-2" vertex="1">
          <mxGeometry x="380" y="185" width="60" height="30" as="geometry" />
        </mxCell>
        <mxCell id="m6rsbceTuGZSMV-VV-9u-33" value="API Service" style="rounded=0;whiteSpace=wrap;html=1;" parent="m6rsbceTuGZSMV-VV-9u-2" vertex="1">
          <mxGeometry x="160" y="170" width="120" height="60" as="geometry" />
        </mxCell>
        <mxCell id="m6rsbceTuGZSMV-VV-9u-5" value="Data Provider" style="whiteSpace=wrap;html=1;aspect=fixed;" parent="1" vertex="1">
          <mxGeometry x="560" y="80" width="80" height="80" as="geometry" />
        </mxCell>
        <mxCell id="m6rsbceTuGZSMV-VV-9u-6" style="edgeStyle=orthogonalEdgeStyle;rounded=0;orthogonalLoop=1;jettySize=auto;html=1;entryX=0;entryY=0.5;entryDx=0;entryDy=0;" parent="1" source="m6rsbceTuGZSMV-VV-9u-4" target="m6rsbceTuGZSMV-VV-9u-5" edge="1">
          <mxGeometry relative="1" as="geometry" />
        </mxCell>
        <mxCell id="m6rsbceTuGZSMV-VV-9u-14" value="Signaling-Frontend" style="swimlane;horizontal=0;whiteSpace=wrap;html=1;" parent="1" vertex="1">
          <mxGeometry x="170" y="470" width="180" height="200" as="geometry" />
        </mxCell>
        <mxCell id="m6rsbceTuGZSMV-VV-9u-15" value="API Interface" style="rounded=0;whiteSpace=wrap;html=1;" parent="m6rsbceTuGZSMV-VV-9u-14" vertex="1">
          <mxGeometry x="45" y="15" width="90" height="40" as="geometry" />
        </mxCell>
        <mxCell id="m6rsbceTuGZSMV-VV-9u-28" style="edgeStyle=orthogonalEdgeStyle;rounded=0;orthogonalLoop=1;jettySize=auto;html=1;" parent="m6rsbceTuGZSMV-VV-9u-14" source="m6rsbceTuGZSMV-VV-9u-27" target="m6rsbceTuGZSMV-VV-9u-15" edge="1">
          <mxGeometry relative="1" as="geometry" />
        </mxCell>
        <mxCell id="m6rsbceTuGZSMV-VV-9u-27" value="Change Power Consumption" style="rounded=0;whiteSpace=wrap;html=1;" parent="m6rsbceTuGZSMV-VV-9u-14" vertex="1">
          <mxGeometry x="47.5" y="82" width="85" height="42.5" as="geometry" />
        </mxCell>
        <mxCell id="m6rsbceTuGZSMV-VV-9u-31" style="edgeStyle=orthogonalEdgeStyle;rounded=0;orthogonalLoop=1;jettySize=auto;html=1;" parent="m6rsbceTuGZSMV-VV-9u-14" source="m6rsbceTuGZSMV-VV-9u-30" target="m6rsbceTuGZSMV-VV-9u-27" edge="1">
          <mxGeometry relative="1" as="geometry" />
        </mxCell>
        <mxCell id="m6rsbceTuGZSMV-VV-9u-30" value="API-Keys" style="rounded=0;whiteSpace=wrap;html=1;" parent="m6rsbceTuGZSMV-VV-9u-14" vertex="1">
          <mxGeometry x="43.75" y="150" width="92.5" height="35" as="geometry" />
        </mxCell>
        <mxCell id="m6rsbceTuGZSMV-VV-9u-16" style="edgeStyle=orthogonalEdgeStyle;rounded=0;orthogonalLoop=1;jettySize=auto;html=1;" parent="1" source="m6rsbceTuGZSMV-VV-9u-15" target="m6rsbceTuGZSMV-VV-9u-33" edge="1">
          <mxGeometry relative="1" as="geometry">
            <mxPoint x="350" y="280" as="targetPoint" />
          </mxGeometry>
        </mxCell>
        <mxCell id="m6rsbceTuGZSMV-VV-9u-18" value="Grafana Dashboard" style="whiteSpace=wrap;html=1;aspect=fixed;" parent="1" vertex="1">
          <mxGeometry x="110" y="370" width="80" height="80" as="geometry" />
        </mxCell>
        <mxCell id="m6rsbceTuGZSMV-VV-9u-17" style="edgeStyle=orthogonalEdgeStyle;rounded=0;orthogonalLoop=1;jettySize=auto;html=1;" parent="1" source="m6rsbceTuGZSMV-VV-9u-7" target="m6rsbceTuGZSMV-VV-9u-18" edge="1">
          <mxGeometry relative="1" as="geometry">
            <mxPoint x="140" y="240" as="targetPoint" />
          </mxGeometry>
        </mxCell>
        <mxCell id="m6rsbceTuGZSMV-VV-9u-23" value="Admin Interface" style="swimlane;horizontal=0;whiteSpace=wrap;html=1;" parent="1" vertex="1">
          <mxGeometry x="380" y="470" width="260" height="200" as="geometry" />
        </mxCell>
        <mxCell id="m6rsbceTuGZSMV-VV-9u-24" value="API Interface" style="rounded=0;whiteSpace=wrap;html=1;" parent="m6rsbceTuGZSMV-VV-9u-23" vertex="1">
          <mxGeometry x="65" y="20" width="110" height="42.5" as="geometry" />
        </mxCell>
        <mxCell id="m6rsbceTuGZSMV-VV-9u-32" style="edgeStyle=orthogonalEdgeStyle;rounded=0;orthogonalLoop=1;jettySize=auto;html=1;entryX=0.5;entryY=1;entryDx=0;entryDy=0;exitX=0;exitY=0.5;exitDx=0;exitDy=0;" parent="m6rsbceTuGZSMV-VV-9u-23" source="m6rsbceTuGZSMV-VV-9u-20" target="m6rsbceTuGZSMV-VV-9u-24" edge="1">
          <mxGeometry relative="1" as="geometry" />
        </mxCell>
        <mxCell id="m6rsbceTuGZSMV-VV-9u-20" value="Configure Location" style="rounded=0;whiteSpace=wrap;html=1;" parent="m6rsbceTuGZSMV-VV-9u-23" vertex="1">
          <mxGeometry x="150" y="80" width="90" height="45" as="geometry" />
        </mxCell>
        <mxCell id="m6rsbceTuGZSMV-VV-9u-37" style="edgeStyle=orthogonalEdgeStyle;rounded=0;orthogonalLoop=1;jettySize=auto;html=1;" parent="m6rsbceTuGZSMV-VV-9u-23" source="m6rsbceTuGZSMV-VV-9u-36" target="m6rsbceTuGZSMV-VV-9u-24" edge="1">
          <mxGeometry relative="1" as="geometry">
            <mxPoint x="109.99999999999977" y="90" as="targetPoint" />
            <Array as="points">
              <mxPoint x="103" y="165" />
            </Array>
          </mxGeometry>
        </mxCell>
        <mxCell id="m6rsbceTuGZSMV-VV-9u-36" value="Add/Remove Clients" style="rounded=0;whiteSpace=wrap;html=1;" parent="m6rsbceTuGZSMV-VV-9u-23" vertex="1">
          <mxGeometry x="150" y="140" width="90" height="50" as="geometry" />
        </mxCell>
        <mxCell id="m6rsbceTuGZSMV-VV-9u-35" style="edgeStyle=orthogonalEdgeStyle;rounded=0;orthogonalLoop=1;jettySize=auto;html=1;exitX=0.5;exitY=0;exitDx=0;exitDy=0;entryX=0.75;entryY=1;entryDx=0;entryDy=0;" parent="1" source="m6rsbceTuGZSMV-VV-9u-24" target="m6rsbceTuGZSMV-VV-9u-33" edge="1">
          <mxGeometry relative="1" as="geometry">
            <mxPoint x="380" y="320" as="targetPoint" />
          </mxGeometry>
        </mxCell>
      </root>
    </mxGraphModel>
  </diagram>
</mxfile>
